M48
INCH,TZ
FMAT,2
ICI,OFF
T01C.012F095S3
T02C.035F197S55
T03C.03543F197S55
T04C.03937F197S55
T05C.043F139S55
T06C.05118F107S55
T07C.07087F081S55
T08C.13F035S794
%
T01
G05
X13053Y17373
X13593Y26963
X13683Y27483
X13713Y28943
X15363Y16943
X14893Y21043
X14853Y25383
X15163Y27033
X14383Y27043
X16433Y12773
X15793Y27093
X15833Y27613
X17453Y11583
X17213Y13633
X16543Y15573
X18203Y11173
X17343Y16403
X17253Y17993
X16673Y19643
X17553Y19663
X16733Y21283
X17463Y25113
X17843Y27373
X17273Y27603
X16463Y28973
X18983Y9943
X18593Y18233
X18703Y20213
X19763Y20033
X19103Y22893
X18843Y23183
X18833Y24313
X18553Y24623
X18643Y27293
X18423Y35093
X20493Y21233
X20143Y23543
X20143Y25303
X19473Y27293
X20413Y32683
X20373Y33433
X20403Y31343
X21403Y14483
X21513Y17403
X21533Y20223
X20893Y27353
X20813Y30633
X22663Y8473
X22873Y11143
X22643Y16543
X21663Y27463
X22743Y17883
X23213Y19173
X22413Y20923
X23213Y21333
X22723Y21583
X22433Y21943
X22343Y23483
X22793Y25363
X22153Y25503
X22663Y25673
X22333Y30063
X21913Y31993
X23983Y21293
X23803Y24093
X23813Y24853
X23263Y25843
X23013Y28733
X23023Y29513
X24303Y26683
X24123Y27503
X24193Y28673
X23423Y30463
X22463Y34833
X25333Y12633
X24853Y13923
X24543Y24853
X26433Y10423
X26503Y13183
X25663Y15143
X25173Y19173
X24713Y21263
X25133Y22503
X25393Y23333
X26003Y23743
X25953Y24493
X25443Y28333
X25483Y29723
X25503Y30653
X26113Y35093
X26123Y35653
X26163Y37313
X27223Y13183
X27263Y20593
X27313Y24103
X28383Y12343
X27893Y17013
X28433Y20413
X28413Y24373
X27823Y25083
X28363Y25263
X27503Y27033
X27783Y28953
X28963Y15933
X28433Y29093
X28133Y31293
X29433Y9943
X29293Y11043
X29693Y14683
X29203Y20953
X28303Y33993
X28283Y36573
X30313Y10483
X30353Y15643
X30293Y16443
X29703Y21243
X30053Y23633
X29543Y24693
X30253Y24983
X29953Y25723
X29343Y26183
X30833Y23573
X30723Y24753
X29933Y26703
X29193Y31773
X30553Y27573
X29913Y29413
X30093Y31323
X29893Y33423
X29893Y34503
X29083Y35423
X29963Y37053
X31303Y12603
X31103Y14603
X31373Y15133
X31623Y15973
X32663Y16243
X31723Y25473
X31073Y26773
X31373Y27223
X32663Y27933
X31803Y29903
X31703Y30263
X30863Y31023
X31243Y31773
X31263Y33243
X31213Y33993
X32923Y17853
X34273Y17143
X33733Y20423
X34003Y20703
X33243Y21193
X33983Y23963
X33303Y24033
X34323Y20973
X33733Y24363
X33533Y25733
X33413Y26853
X33343Y27293
X32743Y30513
X34013Y27473
X34003Y29173
X34023Y29673
X33413Y33873
X35233Y9533
X35173Y18543
X35583Y19103
X34763Y19253
X35583Y24113
X35163Y24193
X34373Y24203
X34613Y24583
X34863Y25083
X35143Y26803
X34283Y26883
X35253Y27323
X34513Y27343
X35203Y28663
X34333Y30983
X34893Y31073
X34763Y33213
X36323Y14583
X36273Y22503
X36183Y24113
X35873Y24433
X35323Y25713
X36063Y27143
X35323Y31333
X37293Y15103
X37363Y21543
X36573Y27303
X35603Y27413
X35583Y28983
X37083Y29063
X36583Y29483
X36043Y29783
X35773Y30763
X36153Y31033
X36463Y31313
X39023Y9553
X38293Y15653
X39073Y19623
X38373Y20183
X39003Y24403
X38693Y24633
X38303Y25393
X38753Y25643
X38013Y26043
X37843Y27313
X37843Y28353
X37343Y30033
X38333Y31563
X39313Y20173
X39343Y16243
X40363Y14773
X40313Y20183
X39813Y20663
X40183Y20953
X40153Y23113
X40283Y23473
X40093Y24103
X39823Y26373
X39363Y26623
X39793Y26883
X39293Y30003
X38503Y30213
X38823Y30513
X40753Y25833
X40403Y29993
X39853Y30423
X40823Y30803
X40483Y31043
X40143Y31553
X41383Y21233
X41323Y14373
X43213Y12203
X42443Y13773
X42423Y15473
X42873Y21513
X43213Y26903
X43193Y29903
X44503Y14363
X44453Y18293
X43983Y20373
X44483Y20623
X43613Y22853
X43853Y23873
X43643Y28253
X44473Y29913
X43703Y31043
X44943Y12623
X45573Y13243
X45353Y14193
X44903Y14613
X46043Y16143
X45073Y16183
X45643Y16233
X45463Y18003
X44953Y18233
X45863Y19803
X44953Y20183
X46113Y22843
X45183Y24393
X44433Y33753
X46703Y21723
X46693Y24373
X46753Y27893
X46253Y30953
X46253Y33423
X48053Y16323
T02
X25701Y18693
X33575Y18693
X42713Y10443
T03
X18461Y36193
X18461Y37193
X21965Y37193
X21965Y36193
T04
X17213Y31906
X17213Y32693
X17213Y33480
X19463Y34443
X19463Y33459
X19463Y31193
X19463Y30209
X22213Y8943
X22213Y9943
X25213Y9943
X25213Y8943
T05
X25713Y32443
X27713Y32443
X26713Y32443
X28713Y32443
X30313Y13443
X29313Y13443
X30713Y32443
X29713Y32443
X32313Y13443
X31313Y13443
X33313Y13443
X32713Y32443
X31713Y32443
X34313Y13443
X36313Y13443
X36313Y32443
X35313Y32443
X34313Y32443
X38313Y13443
X37313Y13443
X37313Y32443
X38313Y32443
X40313Y13443
X39313Y13443
X40313Y32443
X39313Y32443
X41313Y13443
X42413Y22423
X41413Y22423
X42413Y23423
X41413Y23423
X41413Y24423
X42413Y24423
X42463Y26443
X41463Y26443
X42463Y27443
X41463Y27443
X42463Y28443
X41463Y28443
X41463Y29443
X41463Y30443
X41313Y32443
X42463Y30443
X42463Y29443
X45463Y28943
X45463Y29943
X45463Y30943
X45463Y31943
X45463Y32943
X45463Y33943
T06
X17213Y31079
X17213Y34307
T07
X11813Y21860
X13813Y21860
X12813Y22860
X11813Y23860
X13813Y23860
T08
X16713Y9243
X16713Y36443
X47413Y36443
X47413Y9243
M30
